<mxfile host="app.diagrams.net" modified="2023-04-15T10:28:20.998Z" agent="Mozilla/5.0 (Windows NT 10.0; Win64; x64) AppleWebKit/537.36 (KHTML, like Gecko) Chrome/111.0.0.0 Safari/537.36" etag="NQqJ_o6jIrdZOlabN7J-" version="21.1.4" type="device">
  <diagram name="페이지-1" id="359srchq2BuiH0izmWam">
    <mxGraphModel dx="1858" dy="589" grid="1" gridSize="10" guides="1" tooltips="1" connect="1" arrows="1" fold="1" page="1" pageScale="1" pageWidth="827" pageHeight="1169" math="0" shadow="0">
      <root>
        <mxCell id="0" />
        <mxCell id="1" parent="0" />
        <mxCell id="zK0Ivg1ZHaH_nDIwUeP7-8" value="call()" style="edgeStyle=orthogonalEdgeStyle;rounded=0;orthogonalLoop=1;jettySize=auto;html=1;" edge="1" parent="1" source="zK0Ivg1ZHaH_nDIwUeP7-9" target="zK0Ivg1ZHaH_nDIwUeP7-11">
          <mxGeometry x="0.0811" y="20" relative="1" as="geometry">
            <mxPoint as="offset" />
          </mxGeometry>
        </mxCell>
        <mxCell id="zK0Ivg1ZHaH_nDIwUeP7-9" value="Client" style="rounded=0;whiteSpace=wrap;html=1;" vertex="1" parent="1">
          <mxGeometry x="-10" y="180" width="120" height="60" as="geometry" />
        </mxCell>
        <mxCell id="zK0Ivg1ZHaH_nDIwUeP7-10" value="intercept()" style="edgeStyle=orthogonalEdgeStyle;rounded=0;orthogonalLoop=1;jettySize=auto;html=1;" edge="1" parent="1" source="zK0Ivg1ZHaH_nDIwUeP7-11" target="zK0Ivg1ZHaH_nDIwUeP7-13">
          <mxGeometry x="-0.0667" y="20" relative="1" as="geometry">
            <mxPoint as="offset" />
          </mxGeometry>
        </mxCell>
        <mxCell id="zK0Ivg1ZHaH_nDIwUeP7-11" value="proxy" style="rounded=0;whiteSpace=wrap;html=1;" vertex="1" parent="1">
          <mxGeometry x="184" y="180" width="120" height="60" as="geometry" />
        </mxCell>
        <mxCell id="zK0Ivg1ZHaH_nDIwUeP7-12" value="methodProxy.invoke()" style="edgeStyle=orthogonalEdgeStyle;rounded=0;orthogonalLoop=1;jettySize=auto;html=1;" edge="1" parent="1" source="zK0Ivg1ZHaH_nDIwUeP7-13" target="zK0Ivg1ZHaH_nDIwUeP7-14">
          <mxGeometry x="0.0769" y="20" relative="1" as="geometry">
            <mxPoint as="offset" />
          </mxGeometry>
        </mxCell>
        <mxCell id="zK0Ivg1ZHaH_nDIwUeP7-13" value="TimeMethodInterceptor" style="rounded=0;whiteSpace=wrap;html=1;" vertex="1" parent="1">
          <mxGeometry x="424" y="180" width="136" height="60" as="geometry" />
        </mxCell>
        <mxCell id="zK0Ivg1ZHaH_nDIwUeP7-14" value="TestService" style="rounded=0;whiteSpace=wrap;html=1;" vertex="1" parent="1">
          <mxGeometry x="710" y="180" width="136" height="60" as="geometry" />
        </mxCell>
      </root>
    </mxGraphModel>
  </diagram>
</mxfile>
